<mxfile host="app.diagrams.net" modified="2023-07-19T19:03:03.715Z" agent="Mozilla/5.0 (Macintosh; Intel Mac OS X 10.15; rv:109.0) Gecko/20100101 Firefox/114.0" etag="MGaOCRdCMEWQIptPocSh" version="21.5.0" type="device" pages="5">
  <diagram id="0-eWHLoeyMNSjaaNoKgk" name="Core+SW">
    <mxGraphModel dx="2271" dy="876" grid="1" gridSize="10" guides="1" tooltips="1" connect="1" arrows="1" fold="1" page="1" pageScale="1" pageWidth="850" pageHeight="1100" math="0" shadow="0">
      <root>
        <mxCell id="0" />
        <mxCell id="1" parent="0" />
        <mxCell id="dRxcIMOLYfzfEa9-cJZG-1" value="&lt;div&gt;Acme&lt;/div&gt;&lt;div&gt;Application&lt;/div&gt;&lt;div&gt;v1.3&lt;br&gt;&lt;/div&gt;" style="ellipse;whiteSpace=wrap;html=1;aspect=fixed;fillColor=#d5e8d4;strokeColor=#82b366;" parent="1" vertex="1">
          <mxGeometry x="70" y="310" width="140" height="140" as="geometry" />
        </mxCell>
        <mxCell id="dRxcIMOLYfzfEa9-cJZG-2" value="" style="endArrow=classic;html=1;rounded=0;entryX=-0.056;entryY=0.433;entryDx=0;entryDy=0;entryPerimeter=0;fillColor=#d5e8d4;strokeColor=#82b366;" parent="1" target="dRxcIMOLYfzfEa9-cJZG-6" edge="1">
          <mxGeometry relative="1" as="geometry">
            <mxPoint x="209" y="350" as="sourcePoint" />
            <mxPoint x="320" y="320" as="targetPoint" />
          </mxGeometry>
        </mxCell>
        <mxCell id="dRxcIMOLYfzfEa9-cJZG-3" value="contains" style="edgeLabel;resizable=0;html=1;align=center;verticalAlign=middle;" parent="dRxcIMOLYfzfEa9-cJZG-2" connectable="0" vertex="1">
          <mxGeometry relative="1" as="geometry" />
        </mxCell>
        <mxCell id="dRxcIMOLYfzfEa9-cJZG-4" value="" style="endArrow=classic;html=1;rounded=0;fillColor=#d5e8d4;strokeColor=#82b366;" parent="1" edge="1">
          <mxGeometry relative="1" as="geometry">
            <mxPoint x="200" y="420" as="sourcePoint" />
            <mxPoint x="330" y="440" as="targetPoint" />
          </mxGeometry>
        </mxCell>
        <mxCell id="dRxcIMOLYfzfEa9-cJZG-5" value="contains" style="edgeLabel;resizable=0;html=1;align=center;verticalAlign=middle;" parent="dRxcIMOLYfzfEa9-cJZG-4" connectable="0" vertex="1">
          <mxGeometry relative="1" as="geometry" />
        </mxCell>
        <mxCell id="dRxcIMOLYfzfEa9-cJZG-6" value="&lt;div&gt;npm-elliptic&lt;/div&gt;&lt;div&gt;v6.5.2&lt;br&gt;&lt;/div&gt;" style="ellipse;whiteSpace=wrap;html=1;aspect=fixed;fillColor=#d5e8d4;strokeColor=#82b366;" parent="1" vertex="1">
          <mxGeometry x="390" y="290" width="90" height="90" as="geometry" />
        </mxCell>
        <mxCell id="dRxcIMOLYfzfEa9-cJZG-7" value="alpine:latest (container)" style="ellipse;whiteSpace=wrap;html=1;aspect=fixed;fillColor=#d5e8d4;strokeColor=#82b366;" parent="1" vertex="1">
          <mxGeometry x="330" y="400" width="90" height="90" as="geometry" />
        </mxCell>
        <mxCell id="dRxcIMOLYfzfEa9-cJZG-8" value="&lt;div&gt;openssl&lt;/div&gt;&lt;div&gt;v3.0.4&lt;br&gt;&lt;/div&gt;" style="ellipse;whiteSpace=wrap;html=1;aspect=fixed;fillColor=#d5e8d4;strokeColor=#82b366;" parent="1" vertex="1">
          <mxGeometry x="400" y="540" width="90" height="90" as="geometry" />
        </mxCell>
        <mxCell id="dRxcIMOLYfzfEa9-cJZG-9" value="" style="endArrow=classic;html=1;rounded=0;exitX=0.689;exitY=1.011;exitDx=0;exitDy=0;exitPerimeter=0;fillColor=#d5e8d4;strokeColor=#82b366;" parent="1" source="dRxcIMOLYfzfEa9-cJZG-7" target="dRxcIMOLYfzfEa9-cJZG-8" edge="1">
          <mxGeometry relative="1" as="geometry">
            <mxPoint x="210" y="430" as="sourcePoint" />
            <mxPoint x="340" y="450" as="targetPoint" />
          </mxGeometry>
        </mxCell>
        <mxCell id="dRxcIMOLYfzfEa9-cJZG-10" value="contains" style="edgeLabel;resizable=0;html=1;align=center;verticalAlign=middle;" parent="dRxcIMOLYfzfEa9-cJZG-9" connectable="0" vertex="1">
          <mxGeometry relative="1" as="geometry" />
        </mxCell>
        <mxCell id="dRxcIMOLYfzfEa9-cJZG-11" value="&lt;div&gt;Agent (Person):&lt;/div&gt;&lt;div&gt;&amp;nbsp;Application Owner Jane Doe&lt;/div&gt;" style="shape=umlActor;verticalLabelPosition=bottom;verticalAlign=top;html=1;outlineConnect=0;fillColor=#dae8fc;strokeColor=#6c8ebf;" parent="1" vertex="1">
          <mxGeometry x="-140" y="434" width="30" height="60" as="geometry" />
        </mxCell>
        <mxCell id="dRxcIMOLYfzfEa9-cJZG-12" value="" style="sketch=0;outlineConnect=0;fillColor=#dae8fc;strokeColor=#6c8ebf;dashed=0;verticalLabelPosition=bottom;verticalAlign=top;align=center;html=1;fontSize=12;fontStyle=0;aspect=fixed;pointerEvents=1;shape=mxgraph.aws4.office_building;strokeWidth=1;" parent="1" vertex="1">
          <mxGeometry x="-150" y="270" width="50" height="78" as="geometry" />
        </mxCell>
        <mxCell id="dRxcIMOLYfzfEa9-cJZG-14" value="Agent (Organization): Acme Company" style="text;html=1;strokeColor=none;fillColor=none;align=center;verticalAlign=middle;whiteSpace=wrap;rounded=0;" parent="1" vertex="1">
          <mxGeometry x="-197.5" y="350" width="145" height="30" as="geometry" />
        </mxCell>
        <mxCell id="dRxcIMOLYfzfEa9-cJZG-15" value="" style="endArrow=classic;html=1;rounded=0;fillColor=#dae8fc;strokeColor=#6c8ebf;" parent="1" edge="1">
          <mxGeometry relative="1" as="geometry">
            <mxPoint x="73" y="401" as="sourcePoint" />
            <mxPoint x="-110" y="459" as="targetPoint" />
          </mxGeometry>
        </mxCell>
        <mxCell id="dRxcIMOLYfzfEa9-cJZG-16" value="suppliedBy" style="edgeLabel;resizable=0;html=1;align=center;verticalAlign=middle;" parent="dRxcIMOLYfzfEa9-cJZG-15" connectable="0" vertex="1">
          <mxGeometry relative="1" as="geometry" />
        </mxCell>
        <mxCell id="dRxcIMOLYfzfEa9-cJZG-17" value="" style="endArrow=classic;html=1;rounded=0;exitX=0.071;exitY=0.236;exitDx=0;exitDy=0;exitPerimeter=0;fillColor=#dae8fc;strokeColor=#6c8ebf;" parent="1" source="dRxcIMOLYfzfEa9-cJZG-1" edge="1">
          <mxGeometry relative="1" as="geometry">
            <mxPoint x="83" y="411" as="sourcePoint" />
            <mxPoint x="-90" y="310" as="targetPoint" />
          </mxGeometry>
        </mxCell>
        <mxCell id="dRxcIMOLYfzfEa9-cJZG-18" value="suppliedBy" style="edgeLabel;resizable=0;html=1;align=center;verticalAlign=middle;" parent="dRxcIMOLYfzfEa9-cJZG-17" connectable="0" vertex="1">
          <mxGeometry relative="1" as="geometry" />
        </mxCell>
        <mxCell id="AAaGoeeunhpD6IYXBBLh-1" value="Software profile" style="rounded=0;whiteSpace=wrap;html=1;fillColor=#d5e8d4;strokeColor=#82b366;" parent="1" vertex="1">
          <mxGeometry x="-320" y="130" width="110" height="30" as="geometry" />
        </mxCell>
        <mxCell id="AAaGoeeunhpD6IYXBBLh-2" value="Core profile" style="rounded=0;whiteSpace=wrap;html=1;fillColor=#dae8fc;strokeColor=#6c8ebf;" parent="1" vertex="1">
          <mxGeometry x="-320" y="85" width="110" height="30" as="geometry" />
        </mxCell>
      </root>
    </mxGraphModel>
  </diagram>
  <diagram id="Qz3KO9xP3gGsHdqMQW15" name="Core+SW_withIDs">
    <mxGraphModel dx="2271" dy="876" grid="1" gridSize="10" guides="1" tooltips="1" connect="1" arrows="1" fold="1" page="1" pageScale="1" pageWidth="850" pageHeight="1100" math="0" shadow="0">
      <root>
        <mxCell id="0" />
        <mxCell id="1" parent="0" />
        <mxCell id="rIde4lN_QJhEHLGH-0Tv-1" value="&lt;div&gt;Acme&lt;/div&gt;&lt;div&gt;Application&lt;/div&gt;&lt;div&gt;v1.3&lt;br&gt;&lt;/div&gt;" style="ellipse;whiteSpace=wrap;html=1;aspect=fixed;fillColor=#d5e8d4;strokeColor=#82b366;" parent="1" vertex="1">
          <mxGeometry x="70" y="310" width="140" height="140" as="geometry" />
        </mxCell>
        <mxCell id="rIde4lN_QJhEHLGH-0Tv-2" value="" style="endArrow=classic;html=1;rounded=0;entryX=-0.056;entryY=0.433;entryDx=0;entryDy=0;entryPerimeter=0;fillColor=#d5e8d4;strokeColor=#82b366;" parent="1" target="rIde4lN_QJhEHLGH-0Tv-6" edge="1">
          <mxGeometry relative="1" as="geometry">
            <mxPoint x="209" y="350" as="sourcePoint" />
            <mxPoint x="320" y="320" as="targetPoint" />
          </mxGeometry>
        </mxCell>
        <mxCell id="rIde4lN_QJhEHLGH-0Tv-3" value="contains" style="edgeLabel;resizable=0;html=1;align=center;verticalAlign=middle;" parent="rIde4lN_QJhEHLGH-0Tv-2" connectable="0" vertex="1">
          <mxGeometry relative="1" as="geometry" />
        </mxCell>
        <mxCell id="rIde4lN_QJhEHLGH-0Tv-4" value="" style="endArrow=classic;html=1;rounded=0;fillColor=#d5e8d4;strokeColor=#82b366;" parent="1" edge="1">
          <mxGeometry relative="1" as="geometry">
            <mxPoint x="200" y="420" as="sourcePoint" />
            <mxPoint x="330" y="440" as="targetPoint" />
          </mxGeometry>
        </mxCell>
        <mxCell id="rIde4lN_QJhEHLGH-0Tv-5" value="contains" style="edgeLabel;resizable=0;html=1;align=center;verticalAlign=middle;" parent="rIde4lN_QJhEHLGH-0Tv-4" connectable="0" vertex="1">
          <mxGeometry relative="1" as="geometry" />
        </mxCell>
        <mxCell id="rIde4lN_QJhEHLGH-0Tv-6" value="&lt;div&gt;npm-elliptic&lt;/div&gt;&lt;div&gt;v6.5.2&lt;br&gt;&lt;/div&gt;" style="ellipse;whiteSpace=wrap;html=1;aspect=fixed;fillColor=#d5e8d4;strokeColor=#82b366;" parent="1" vertex="1">
          <mxGeometry x="390" y="290" width="90" height="90" as="geometry" />
        </mxCell>
        <mxCell id="rIde4lN_QJhEHLGH-0Tv-7" value="alpine:latest (container)" style="ellipse;whiteSpace=wrap;html=1;aspect=fixed;fillColor=#d5e8d4;strokeColor=#82b366;" parent="1" vertex="1">
          <mxGeometry x="330" y="400" width="90" height="90" as="geometry" />
        </mxCell>
        <mxCell id="rIde4lN_QJhEHLGH-0Tv-11" value="&lt;div&gt;openssl&lt;/div&gt;&lt;div&gt;v3.0.4&lt;br&gt;&lt;/div&gt;" style="ellipse;whiteSpace=wrap;html=1;aspect=fixed;fillColor=#d5e8d4;strokeColor=#82b366;" parent="1" vertex="1">
          <mxGeometry x="400" y="540" width="90" height="90" as="geometry" />
        </mxCell>
        <mxCell id="rIde4lN_QJhEHLGH-0Tv-12" value="" style="endArrow=classic;html=1;rounded=0;exitX=0.689;exitY=1.011;exitDx=0;exitDy=0;exitPerimeter=0;fillColor=#d5e8d4;strokeColor=#82b366;" parent="1" source="rIde4lN_QJhEHLGH-0Tv-7" target="rIde4lN_QJhEHLGH-0Tv-11" edge="1">
          <mxGeometry relative="1" as="geometry">
            <mxPoint x="210" y="430" as="sourcePoint" />
            <mxPoint x="340" y="450" as="targetPoint" />
          </mxGeometry>
        </mxCell>
        <mxCell id="rIde4lN_QJhEHLGH-0Tv-13" value="contains" style="edgeLabel;resizable=0;html=1;align=center;verticalAlign=middle;" parent="rIde4lN_QJhEHLGH-0Tv-12" connectable="0" vertex="1">
          <mxGeometry relative="1" as="geometry" />
        </mxCell>
        <mxCell id="rIde4lN_QJhEHLGH-0Tv-36" value="&lt;div&gt;Agent (Person):&lt;/div&gt;&lt;div&gt;&amp;nbsp;Application Owner Jane Doe&lt;/div&gt;" style="shape=umlActor;verticalLabelPosition=bottom;verticalAlign=top;html=1;outlineConnect=0;fillColor=#dae8fc;strokeColor=#6c8ebf;" parent="1" vertex="1">
          <mxGeometry x="-140" y="434" width="30" height="60" as="geometry" />
        </mxCell>
        <mxCell id="rIde4lN_QJhEHLGH-0Tv-37" value="" style="sketch=0;outlineConnect=0;fillColor=#dae8fc;strokeColor=#6c8ebf;dashed=0;verticalLabelPosition=bottom;verticalAlign=top;align=center;html=1;fontSize=12;fontStyle=0;aspect=fixed;pointerEvents=1;shape=mxgraph.aws4.office_building;strokeWidth=1;" parent="1" vertex="1">
          <mxGeometry x="-150" y="270" width="50" height="78" as="geometry" />
        </mxCell>
        <mxCell id="rIde4lN_QJhEHLGH-0Tv-38" value="&lt;font style=&quot;font-size: 10px;&quot; face=&quot;Courier New&quot;&gt;@id: urn:acme.com&lt;/font&gt;&lt;font style=&quot;font-size: 10px;&quot; face=&quot;Courier New&quot;&gt;-4fe40e24-20e3-11ee-be56-0242ac120002&lt;/font&gt;" style="text;html=1;strokeColor=none;fillColor=none;align=center;verticalAlign=middle;whiteSpace=wrap;rounded=0;" parent="1" vertex="1">
          <mxGeometry x="-195" y="375" width="145" height="50" as="geometry" />
        </mxCell>
        <mxCell id="rIde4lN_QJhEHLGH-0Tv-39" value="Agent (Organization): Acme Company" style="text;html=1;strokeColor=none;fillColor=none;align=center;verticalAlign=middle;whiteSpace=wrap;rounded=0;" parent="1" vertex="1">
          <mxGeometry x="-197.5" y="350" width="145" height="30" as="geometry" />
        </mxCell>
        <mxCell id="rIde4lN_QJhEHLGH-0Tv-40" value="" style="endArrow=classic;html=1;rounded=0;fillColor=#dae8fc;strokeColor=#6c8ebf;" parent="1" edge="1">
          <mxGeometry relative="1" as="geometry">
            <mxPoint x="73" y="401" as="sourcePoint" />
            <mxPoint x="-110" y="459" as="targetPoint" />
          </mxGeometry>
        </mxCell>
        <mxCell id="rIde4lN_QJhEHLGH-0Tv-41" value="suppliedBy" style="edgeLabel;resizable=0;html=1;align=center;verticalAlign=middle;" parent="rIde4lN_QJhEHLGH-0Tv-40" connectable="0" vertex="1">
          <mxGeometry relative="1" as="geometry" />
        </mxCell>
        <mxCell id="X0IN-1VNSOMTX23wph3d-1" value="" style="endArrow=classic;html=1;rounded=0;exitX=0.071;exitY=0.236;exitDx=0;exitDy=0;exitPerimeter=0;fillColor=#dae8fc;strokeColor=#6c8ebf;" parent="1" edge="1">
          <mxGeometry relative="1" as="geometry">
            <mxPoint x="80" y="343" as="sourcePoint" />
            <mxPoint x="-90" y="310" as="targetPoint" />
          </mxGeometry>
        </mxCell>
        <mxCell id="X0IN-1VNSOMTX23wph3d-2" value="suppliedBy" style="edgeLabel;resizable=0;html=1;align=center;verticalAlign=middle;" parent="X0IN-1VNSOMTX23wph3d-1" connectable="0" vertex="1">
          <mxGeometry relative="1" as="geometry" />
        </mxCell>
        <mxCell id="d_j62Qx5wG80KKlmzP4Z-1" value="Software profile" style="rounded=0;whiteSpace=wrap;html=1;fillColor=#d5e8d4;strokeColor=#82b366;" parent="1" vertex="1">
          <mxGeometry x="-320" y="130" width="110" height="30" as="geometry" />
        </mxCell>
        <mxCell id="d_j62Qx5wG80KKlmzP4Z-2" value="Core profile" style="rounded=0;whiteSpace=wrap;html=1;fillColor=#dae8fc;strokeColor=#6c8ebf;" parent="1" vertex="1">
          <mxGeometry x="-320" y="85" width="110" height="30" as="geometry" />
        </mxCell>
        <mxCell id="uujxsWKDwg2TfNfE9P9Y-1" value="&lt;font style=&quot;font-size: 10px;&quot; face=&quot;Courier New&quot;&gt;@id: urn:jane-doe-1@acme.com-&lt;/font&gt;&lt;font style=&quot;font-size: 10px;&quot; face=&quot;Courier New&quot;&gt;76010e36-20e3-11ee-be56-0242ac120002&lt;/font&gt;" style="text;html=1;strokeColor=none;fillColor=none;align=center;verticalAlign=middle;whiteSpace=wrap;rounded=0;" parent="1" vertex="1">
          <mxGeometry x="-195" y="546" width="140" height="30" as="geometry" />
        </mxCell>
        <mxCell id="9LPVU_qcCeF6ZjWFOUi3-1" value="&lt;font style=&quot;font-size: 10px;&quot; face=&quot;Courier New&quot;&gt;@id: urn:product-acme-application-1.3&lt;/font&gt;&lt;font style=&quot;font-size: 10px;&quot; face=&quot;Courier New&quot;&gt;-&lt;/font&gt;&lt;font style=&quot;font-size: 10px;&quot; face=&quot;Courier New&quot;&gt;8f833b36-20e3-11ee-be56-0242ac120002&lt;/font&gt;" style="text;html=1;strokeColor=none;fillColor=none;align=center;verticalAlign=middle;whiteSpace=wrap;rounded=0;" parent="1" vertex="1">
          <mxGeometry x="50" y="464" width="180" height="30" as="geometry" />
        </mxCell>
        <mxCell id="9LPVU_qcCeF6ZjWFOUi3-3" value="&lt;font face=&quot;Courier New&quot;&gt;&lt;font style=&quot;font-size: 10px;&quot;&gt;@id: urn:container-alpine-latest&lt;/font&gt;&lt;font style=&quot;font-size: 10px;&quot;&gt;-sha256:69665d02cb32192e52e07644d76bc6f25abeb5410edc1c7a81a10ba3f0efb90a-bc60a210-20e3-11ee-be56-0242ac120002&lt;/font&gt;&lt;/font&gt;" style="text;html=1;strokeColor=none;fillColor=none;align=center;verticalAlign=middle;whiteSpace=wrap;rounded=0;" parent="1" vertex="1">
          <mxGeometry x="530" y="434" width="235" height="30" as="geometry" />
        </mxCell>
        <mxCell id="i1hWI6aHJcAARs7p1U-W-1" value="&lt;font face=&quot;Courier New&quot;&gt;&lt;font style=&quot;font-size: 10px;&quot;&gt;@id: urn:npm-elliptic-6.5.2&lt;/font&gt;&lt;font style=&quot;font-size: 10px;&quot;&gt;-a840cbd4-20e3-11ee-be56-0242ac120002&lt;/font&gt;&lt;/font&gt;" style="text;html=1;strokeColor=none;fillColor=none;align=center;verticalAlign=middle;whiteSpace=wrap;rounded=0;" parent="1" vertex="1">
          <mxGeometry x="470" y="320" width="200" height="30" as="geometry" />
        </mxCell>
        <mxCell id="CF6UL1h3XBYH-4xcdNRK-1" value="&lt;font face=&quot;Courier New&quot;&gt;&lt;font style=&quot;font-size: 10px;&quot;&gt;@id: urn:openssl-3.0.4-&lt;/font&gt;&lt;font style=&quot;font-size: 10px;&quot;&gt;cf812fb8-20e3-11ee-be56-0242ac120002&lt;/font&gt;&lt;/font&gt;" style="text;html=1;strokeColor=none;fillColor=none;align=center;verticalAlign=middle;whiteSpace=wrap;rounded=0;" parent="1" vertex="1">
          <mxGeometry x="470" y="576" width="200" height="30" as="geometry" />
        </mxCell>
      </root>
    </mxGraphModel>
  </diagram>
  <diagram name="Core+SW+Sec" id="WquUXb_eJ3ChvTI53s2W">
    <mxGraphModel dx="2271" dy="876" grid="1" gridSize="10" guides="1" tooltips="1" connect="1" arrows="1" fold="1" page="1" pageScale="1" pageWidth="850" pageHeight="1100" math="0" shadow="0">
      <root>
        <mxCell id="0" />
        <mxCell id="1" parent="0" />
        <mxCell id="yMC5-OrvycxLpBHfMptG-1" value="&lt;div&gt;Acme&lt;/div&gt;&lt;div&gt;Application&lt;/div&gt;&lt;div&gt;v1.3&lt;br&gt;&lt;/div&gt;" style="ellipse;whiteSpace=wrap;html=1;aspect=fixed;fillColor=#d5e8d4;strokeColor=#82b366;" parent="1" vertex="1">
          <mxGeometry x="70" y="310" width="140" height="140" as="geometry" />
        </mxCell>
        <mxCell id="yMC5-OrvycxLpBHfMptG-4" value="" style="endArrow=classic;html=1;rounded=0;entryX=-0.056;entryY=0.433;entryDx=0;entryDy=0;entryPerimeter=0;fillColor=#d5e8d4;strokeColor=#82b366;" parent="1" target="yMC5-OrvycxLpBHfMptG-8" edge="1">
          <mxGeometry relative="1" as="geometry">
            <mxPoint x="209" y="350" as="sourcePoint" />
            <mxPoint x="320" y="320" as="targetPoint" />
          </mxGeometry>
        </mxCell>
        <mxCell id="yMC5-OrvycxLpBHfMptG-5" value="contains" style="edgeLabel;resizable=0;html=1;align=center;verticalAlign=middle;" parent="yMC5-OrvycxLpBHfMptG-4" connectable="0" vertex="1">
          <mxGeometry relative="1" as="geometry" />
        </mxCell>
        <mxCell id="yMC5-OrvycxLpBHfMptG-6" value="" style="endArrow=classic;html=1;rounded=0;fillColor=#d5e8d4;strokeColor=#82b366;" parent="1" edge="1">
          <mxGeometry relative="1" as="geometry">
            <mxPoint x="200" y="420" as="sourcePoint" />
            <mxPoint x="330" y="440" as="targetPoint" />
          </mxGeometry>
        </mxCell>
        <mxCell id="yMC5-OrvycxLpBHfMptG-7" value="contains" style="edgeLabel;resizable=0;html=1;align=center;verticalAlign=middle;" parent="yMC5-OrvycxLpBHfMptG-6" connectable="0" vertex="1">
          <mxGeometry relative="1" as="geometry" />
        </mxCell>
        <mxCell id="yMC5-OrvycxLpBHfMptG-8" value="&lt;div&gt;npm-elliptic&lt;/div&gt;&lt;div&gt;v6.5.2&lt;br&gt;&lt;/div&gt;" style="ellipse;whiteSpace=wrap;html=1;aspect=fixed;fillColor=#d5e8d4;strokeColor=#82b366;" parent="1" vertex="1">
          <mxGeometry x="390" y="290" width="90" height="90" as="geometry" />
        </mxCell>
        <mxCell id="yMC5-OrvycxLpBHfMptG-9" value="alpine:latest (container)" style="ellipse;whiteSpace=wrap;html=1;aspect=fixed;fillColor=#d5e8d4;strokeColor=#82b366;" parent="1" vertex="1">
          <mxGeometry x="330" y="400" width="90" height="90" as="geometry" />
        </mxCell>
        <mxCell id="yMC5-OrvycxLpBHfMptG-13" value="&lt;div&gt;cve&lt;/div&gt;&lt;div&gt;2020-28498&lt;/div&gt;" style="rhombus;whiteSpace=wrap;html=1;fillColor=#f8cecc;strokeColor=#b85450;" parent="1" vertex="1">
          <mxGeometry x="340" y="70" width="90" height="90" as="geometry" />
        </mxCell>
        <mxCell id="yMC5-OrvycxLpBHfMptG-14" value="" style="endArrow=classic;html=1;rounded=0;exitX=0.5;exitY=0;exitDx=0;exitDy=0;fillColor=#f8cecc;strokeColor=#b85450;" parent="1" source="yMC5-OrvycxLpBHfMptG-8" target="yMC5-OrvycxLpBHfMptG-13" edge="1">
          <mxGeometry relative="1" as="geometry">
            <mxPoint x="420" y="280" as="sourcePoint" />
            <mxPoint x="520.5" y="270" as="targetPoint" />
          </mxGeometry>
        </mxCell>
        <mxCell id="yMC5-OrvycxLpBHfMptG-15" value="hasAssociatedVulnerability" style="edgeLabel;resizable=0;html=1;align=center;verticalAlign=middle;" parent="yMC5-OrvycxLpBHfMptG-14" connectable="0" vertex="1">
          <mxGeometry relative="1" as="geometry" />
        </mxCell>
        <mxCell id="yMC5-OrvycxLpBHfMptG-19" value="&lt;div&gt;openssl&lt;/div&gt;&lt;div&gt;v3.0.4&lt;br&gt;&lt;/div&gt;" style="ellipse;whiteSpace=wrap;html=1;aspect=fixed;fillColor=#d5e8d4;strokeColor=#82b366;" parent="1" vertex="1">
          <mxGeometry x="400" y="540" width="90" height="90" as="geometry" />
        </mxCell>
        <mxCell id="yMC5-OrvycxLpBHfMptG-20" value="" style="endArrow=classic;html=1;rounded=0;exitX=0.689;exitY=1.011;exitDx=0;exitDy=0;exitPerimeter=0;fillColor=#d5e8d4;strokeColor=#82b366;" parent="1" source="yMC5-OrvycxLpBHfMptG-9" target="yMC5-OrvycxLpBHfMptG-19" edge="1">
          <mxGeometry relative="1" as="geometry">
            <mxPoint x="210" y="430" as="sourcePoint" />
            <mxPoint x="340" y="450" as="targetPoint" />
          </mxGeometry>
        </mxCell>
        <mxCell id="yMC5-OrvycxLpBHfMptG-21" value="contains" style="edgeLabel;resizable=0;html=1;align=center;verticalAlign=middle;" parent="yMC5-OrvycxLpBHfMptG-20" connectable="0" vertex="1">
          <mxGeometry relative="1" as="geometry" />
        </mxCell>
        <mxCell id="yMC5-OrvycxLpBHfMptG-22" value="&lt;div&gt;cve&lt;/div&gt;&lt;div&gt;2022-2274&lt;/div&gt;" style="rhombus;whiteSpace=wrap;html=1;fillColor=#f8cecc;strokeColor=#b85450;" parent="1" vertex="1">
          <mxGeometry x="280" y="660" width="90" height="90" as="geometry" />
        </mxCell>
        <mxCell id="yMC5-OrvycxLpBHfMptG-23" value="" style="endArrow=classic;html=1;rounded=0;fillColor=#f8cecc;strokeColor=#b85450;" parent="1" source="yMC5-OrvycxLpBHfMptG-19" target="yMC5-OrvycxLpBHfMptG-22" edge="1">
          <mxGeometry relative="1" as="geometry">
            <mxPoint x="419.5" y="310" as="sourcePoint" />
            <mxPoint x="670" y="480" as="targetPoint" />
          </mxGeometry>
        </mxCell>
        <mxCell id="yMC5-OrvycxLpBHfMptG-24" value="hasAssociatedVulnerability" style="edgeLabel;resizable=0;html=1;align=center;verticalAlign=middle;" parent="yMC5-OrvycxLpBHfMptG-23" connectable="0" vertex="1">
          <mxGeometry relative="1" as="geometry" />
        </mxCell>
        <mxCell id="yMC5-OrvycxLpBHfMptG-31" value="" style="endArrow=classic;html=1;rounded=0;entryX=0.643;entryY=1;entryDx=0;entryDy=0;entryPerimeter=0;fillColor=#f8cecc;strokeColor=#b85450;" parent="1" source="yMC5-OrvycxLpBHfMptG-22" target="yMC5-OrvycxLpBHfMptG-1" edge="1">
          <mxGeometry relative="1" as="geometry">
            <mxPoint x="400.0044326601774" y="590.0044326601773" as="sourcePoint" />
            <mxPoint x="204.02999999999994" y="762.01" as="targetPoint" />
          </mxGeometry>
        </mxCell>
        <mxCell id="yMC5-OrvycxLpBHfMptG-32" value="&lt;div&gt;CvssV3VulnAssessmentRelationship:&lt;/div&gt;&lt;div&gt;hasAssessmentFor&lt;/div&gt;" style="edgeLabel;resizable=0;html=1;align=center;verticalAlign=middle;" parent="yMC5-OrvycxLpBHfMptG-31" connectable="0" vertex="1">
          <mxGeometry relative="1" as="geometry" />
        </mxCell>
        <mxCell id="yMC5-OrvycxLpBHfMptG-33" value="" style="endArrow=classic;html=1;rounded=0;entryX=0.679;entryY=-0.014;entryDx=0;entryDy=0;entryPerimeter=0;fillColor=#f8cecc;strokeColor=#b85450;" parent="1" source="yMC5-OrvycxLpBHfMptG-13" edge="1">
          <mxGeometry relative="1" as="geometry">
            <mxPoint x="371" y="146" as="sourcePoint" />
            <mxPoint x="175" y="318" as="targetPoint" />
          </mxGeometry>
        </mxCell>
        <mxCell id="yMC5-OrvycxLpBHfMptG-34" value="&lt;div&gt;CvssV2VulnAssessmentRelationship:&lt;/div&gt;&lt;div&gt;hasAssessmentFor&lt;/div&gt;" style="edgeLabel;resizable=0;html=1;align=center;verticalAlign=middle;" parent="yMC5-OrvycxLpBHfMptG-33" connectable="0" vertex="1">
          <mxGeometry relative="1" as="geometry">
            <mxPoint x="-29" as="offset" />
          </mxGeometry>
        </mxCell>
        <mxCell id="yMC5-OrvycxLpBHfMptG-36" value="&lt;div&gt;Agent: Security Researcher (Snyk)&lt;/div&gt;" style="shape=umlActor;verticalLabelPosition=bottom;verticalAlign=top;html=1;outlineConnect=0;fillColor=#dae8fc;strokeColor=#6c8ebf;" parent="1" vertex="1">
          <mxGeometry x="610" y="85" width="30" height="60" as="geometry" />
        </mxCell>
        <mxCell id="yMC5-OrvycxLpBHfMptG-37" value="" style="endArrow=classic;html=1;rounded=0;fillColor=#f8cecc;strokeColor=#b85450;" parent="1" edge="1">
          <mxGeometry relative="1" as="geometry">
            <mxPoint x="430" y="114.5" as="sourcePoint" />
            <mxPoint x="600" y="115" as="targetPoint" />
          </mxGeometry>
        </mxCell>
        <mxCell id="yMC5-OrvycxLpBHfMptG-38" value="reportedBy" style="edgeLabel;resizable=0;html=1;align=center;verticalAlign=middle;" parent="yMC5-OrvycxLpBHfMptG-37" connectable="0" vertex="1">
          <mxGeometry relative="1" as="geometry" />
        </mxCell>
        <mxCell id="yMC5-OrvycxLpBHfMptG-41" value="" style="curved=1;endArrow=classic;html=1;rounded=0;entryX=-0.067;entryY=0.489;entryDx=0;entryDy=0;entryPerimeter=0;exitX=0;exitY=0.5;exitDx=0;exitDy=0;fillColor=#f8cecc;strokeColor=#b85450;" parent="1" source="yMC5-OrvycxLpBHfMptG-13" edge="1">
          <mxGeometry width="50" height="50" relative="1" as="geometry">
            <mxPoint x="-260" y="240" as="sourcePoint" />
            <mxPoint x="90" y="330.90999999999997" as="targetPoint" />
            <Array as="points">
              <mxPoint x="210" y="80" />
              <mxPoint x="50" y="200" />
            </Array>
          </mxGeometry>
        </mxCell>
        <mxCell id="yMC5-OrvycxLpBHfMptG-42" value="&lt;div&gt;VexAffectedAssessmentRelationship:&lt;/div&gt;affects" style="edgeLabel;resizable=0;html=1;align=center;verticalAlign=middle;" parent="1" connectable="0" vertex="1">
          <mxGeometry x="130.00015518141217" y="160.00151665796832" as="geometry" />
        </mxCell>
        <mxCell id="yMC5-OrvycxLpBHfMptG-44" value="" style="curved=1;endArrow=classic;html=1;rounded=0;fillColor=#f8cecc;strokeColor=#b85450;" parent="1" source="yMC5-OrvycxLpBHfMptG-22" target="yMC5-OrvycxLpBHfMptG-1" edge="1">
          <mxGeometry width="50" height="50" relative="1" as="geometry">
            <mxPoint x="140" y="630" as="sourcePoint" />
            <mxPoint x="190" y="580" as="targetPoint" />
            <Array as="points">
              <mxPoint x="60" y="650" />
              <mxPoint x="20" y="540" />
            </Array>
          </mxGeometry>
        </mxCell>
        <mxCell id="yMC5-OrvycxLpBHfMptG-45" value="&lt;div&gt;VexNotAffectedAssessmentRelationship:&lt;/div&gt;doesNotAffect" style="edgeLabel;resizable=0;html=1;align=center;verticalAlign=middle;" parent="1" connectable="0" vertex="1">
          <mxGeometry x="59.99686863858648" y="620.0016444589619" as="geometry">
            <mxPoint x="-1" y="-3" as="offset" />
          </mxGeometry>
        </mxCell>
        <mxCell id="yMC5-OrvycxLpBHfMptG-47" value="" style="endArrow=classic;html=1;rounded=0;fillColor=#f8cecc;strokeColor=#b85450;" parent="1" source="yMC5-OrvycxLpBHfMptG-13" edge="1">
          <mxGeometry relative="1" as="geometry">
            <mxPoint x="620" y="170" as="sourcePoint" />
            <mxPoint x="610" y="240" as="targetPoint" />
          </mxGeometry>
        </mxCell>
        <mxCell id="yMC5-OrvycxLpBHfMptG-48" value="externalReference" style="edgeLabel;resizable=0;html=1;align=center;verticalAlign=middle;" parent="yMC5-OrvycxLpBHfMptG-47" connectable="0" vertex="1">
          <mxGeometry relative="1" as="geometry" />
        </mxCell>
        <mxCell id="yMC5-OrvycxLpBHfMptG-55" value="&lt;pre&gt;&lt;font face=&quot;Helvetica&quot;&gt;https://snyk.io/vuln/SNYK-JS-ELLIPTIC-1064899&lt;/font&gt;&lt;/pre&gt;" style="text;html=1;strokeColor=none;fillColor=none;align=center;verticalAlign=middle;whiteSpace=wrap;rounded=0;" parent="1" vertex="1">
          <mxGeometry x="630" y="240" width="60" height="30" as="geometry" />
        </mxCell>
        <mxCell id="muaxl6axD59PI0z636qG-1" value="&lt;div&gt;Agent (Person):&lt;/div&gt;&lt;div&gt;&amp;nbsp;Application Owner Jane Doe&lt;/div&gt;" style="shape=umlActor;verticalLabelPosition=bottom;verticalAlign=top;html=1;outlineConnect=0;fillColor=#dae8fc;strokeColor=#6c8ebf;" parent="1" vertex="1">
          <mxGeometry x="-140" y="434" width="30" height="60" as="geometry" />
        </mxCell>
        <mxCell id="muaxl6axD59PI0z636qG-2" value="" style="sketch=0;outlineConnect=0;fillColor=#dae8fc;strokeColor=#6c8ebf;dashed=0;verticalLabelPosition=bottom;verticalAlign=top;align=center;html=1;fontSize=12;fontStyle=0;aspect=fixed;pointerEvents=1;shape=mxgraph.aws4.office_building;strokeWidth=1;" parent="1" vertex="1">
          <mxGeometry x="-150" y="270" width="50" height="78" as="geometry" />
        </mxCell>
        <mxCell id="muaxl6axD59PI0z636qG-4" value="Agent (Organization): Acme Company" style="text;html=1;strokeColor=none;fillColor=none;align=center;verticalAlign=middle;whiteSpace=wrap;rounded=0;" parent="1" vertex="1">
          <mxGeometry x="-197.5" y="350" width="145" height="30" as="geometry" />
        </mxCell>
        <mxCell id="Xsjt_69eA_yvgX5lN68e-1" value="" style="endArrow=classic;html=1;rounded=0;fillColor=#dae8fc;strokeColor=#6c8ebf;" parent="1" edge="1">
          <mxGeometry relative="1" as="geometry">
            <mxPoint x="73" y="401" as="sourcePoint" />
            <mxPoint x="-110" y="459" as="targetPoint" />
          </mxGeometry>
        </mxCell>
        <mxCell id="Xsjt_69eA_yvgX5lN68e-2" value="suppliedBy" style="edgeLabel;resizable=0;html=1;align=center;verticalAlign=middle;" parent="Xsjt_69eA_yvgX5lN68e-1" connectable="0" vertex="1">
          <mxGeometry relative="1" as="geometry" />
        </mxCell>
        <mxCell id="eqEMEPqcMjQhSIzv83-R-1" value="" style="endArrow=classic;html=1;rounded=0;exitX=0.071;exitY=0.236;exitDx=0;exitDy=0;exitPerimeter=0;fillColor=#dae8fc;strokeColor=#6c8ebf;" parent="1" edge="1">
          <mxGeometry relative="1" as="geometry">
            <mxPoint x="80" y="343" as="sourcePoint" />
            <mxPoint x="-90" y="310" as="targetPoint" />
          </mxGeometry>
        </mxCell>
        <mxCell id="eqEMEPqcMjQhSIzv83-R-2" value="suppliedBy" style="edgeLabel;resizable=0;html=1;align=center;verticalAlign=middle;" parent="eqEMEPqcMjQhSIzv83-R-1" connectable="0" vertex="1">
          <mxGeometry relative="1" as="geometry" />
        </mxCell>
        <mxCell id="BPLeZ9qySUzkZGHQD4pG-1" value="Software profile" style="rounded=0;whiteSpace=wrap;html=1;fillColor=#d5e8d4;strokeColor=#82b366;" parent="1" vertex="1">
          <mxGeometry x="-320" y="130" width="110" height="30" as="geometry" />
        </mxCell>
        <mxCell id="BPLeZ9qySUzkZGHQD4pG-2" value="Core profile" style="rounded=0;whiteSpace=wrap;html=1;fillColor=#dae8fc;strokeColor=#6c8ebf;" parent="1" vertex="1">
          <mxGeometry x="-320" y="85" width="110" height="30" as="geometry" />
        </mxCell>
        <mxCell id="BPLeZ9qySUzkZGHQD4pG-3" value="Security profile" style="rounded=0;whiteSpace=wrap;html=1;fillColor=#f8cecc;strokeColor=#b85450;" parent="1" vertex="1">
          <mxGeometry x="-320" y="175" width="110" height="30" as="geometry" />
        </mxCell>
        <mxCell id="xeYTByw-5o5d8qQDIw5m-1" value="" style="sketch=0;outlineConnect=0;fillColor=#dae8fc;strokeColor=#6c8ebf;dashed=0;verticalLabelPosition=bottom;verticalAlign=top;align=center;html=1;fontSize=12;fontStyle=0;aspect=fixed;pointerEvents=1;shape=mxgraph.aws4.office_building;strokeWidth=1;" vertex="1" parent="1">
          <mxGeometry x="520" y="760" width="50" height="78" as="geometry" />
        </mxCell>
        <mxCell id="xeYTByw-5o5d8qQDIw5m-2" value="OpenSSL Software Foundation" style="text;html=1;strokeColor=none;fillColor=none;align=center;verticalAlign=middle;whiteSpace=wrap;rounded=0;" vertex="1" parent="1">
          <mxGeometry x="456.25" y="838" width="177.5" height="30" as="geometry" />
        </mxCell>
        <mxCell id="UJfMdpgL8prHUL6ddgfn-1" value="" style="endArrow=classic;html=1;rounded=0;fillColor=#f8cecc;strokeColor=#b85450;exitX=1;exitY=0.5;exitDx=0;exitDy=0;" edge="1" parent="1">
          <mxGeometry relative="1" as="geometry">
            <mxPoint x="370" y="705" as="sourcePoint" />
            <mxPoint x="510" y="790" as="targetPoint" />
          </mxGeometry>
        </mxCell>
        <mxCell id="UJfMdpgL8prHUL6ddgfn-2" value="reportedBy" style="edgeLabel;resizable=0;html=1;align=center;verticalAlign=middle;" connectable="0" vertex="1" parent="UJfMdpgL8prHUL6ddgfn-1">
          <mxGeometry relative="1" as="geometry" />
        </mxCell>
        <mxCell id="pzd1YYZjPZkmSMYB29p1-1" value="" style="endArrow=classic;html=1;rounded=0;fillColor=#dae8fc;strokeColor=#6c8ebf;" edge="1" parent="1">
          <mxGeometry relative="1" as="geometry">
            <mxPoint x="480" y="331" as="sourcePoint" />
            <mxPoint x="760" y="330" as="targetPoint" />
          </mxGeometry>
        </mxCell>
        <mxCell id="pzd1YYZjPZkmSMYB29p1-2" value="suppliedBy" style="edgeLabel;resizable=0;html=1;align=center;verticalAlign=middle;" connectable="0" vertex="1" parent="pzd1YYZjPZkmSMYB29p1-1">
          <mxGeometry relative="1" as="geometry" />
        </mxCell>
        <mxCell id="pzd1YYZjPZkmSMYB29p1-3" value="" style="sketch=0;outlineConnect=0;fillColor=#dae8fc;strokeColor=#6c8ebf;dashed=0;verticalLabelPosition=bottom;verticalAlign=top;align=center;html=1;fontSize=12;fontStyle=0;aspect=fixed;pointerEvents=1;shape=mxgraph.aws4.office_building;strokeWidth=1;" vertex="1" parent="1">
          <mxGeometry x="770" y="280" width="50" height="78" as="geometry" />
        </mxCell>
        <mxCell id="pzd1YYZjPZkmSMYB29p1-4" value="&lt;div&gt;Agent (Organization):&lt;/div&gt;&lt;div&gt;Indutny&lt;/div&gt;" style="text;html=1;strokeColor=none;fillColor=none;align=center;verticalAlign=middle;whiteSpace=wrap;rounded=0;" vertex="1" parent="1">
          <mxGeometry x="706.25" y="358" width="177.5" height="30" as="geometry" />
        </mxCell>
        <mxCell id="pzd1YYZjPZkmSMYB29p1-5" value="" style="endArrow=classic;html=1;rounded=0;fillColor=#dae8fc;strokeColor=#6c8ebf;" edge="1" parent="1">
          <mxGeometry relative="1" as="geometry">
            <mxPoint x="424" y="437.75" as="sourcePoint" />
            <mxPoint x="874" y="452.25" as="targetPoint" />
          </mxGeometry>
        </mxCell>
        <mxCell id="pzd1YYZjPZkmSMYB29p1-6" value="suppliedBy" style="edgeLabel;resizable=0;html=1;align=center;verticalAlign=middle;" connectable="0" vertex="1" parent="pzd1YYZjPZkmSMYB29p1-5">
          <mxGeometry relative="1" as="geometry" />
        </mxCell>
        <mxCell id="pzd1YYZjPZkmSMYB29p1-7" value="" style="sketch=0;outlineConnect=0;fillColor=#dae8fc;strokeColor=#6c8ebf;dashed=0;verticalLabelPosition=bottom;verticalAlign=top;align=center;html=1;fontSize=12;fontStyle=0;aspect=fixed;pointerEvents=1;shape=mxgraph.aws4.office_building;strokeWidth=1;" vertex="1" parent="1">
          <mxGeometry x="874" y="432" width="50" height="78" as="geometry" />
        </mxCell>
        <mxCell id="pzd1YYZjPZkmSMYB29p1-8" value="&lt;div&gt;Agent (Organization):&lt;/div&gt;&lt;div&gt;Alpine Linux&lt;br&gt;&lt;/div&gt;" style="text;html=1;strokeColor=none;fillColor=none;align=center;verticalAlign=middle;whiteSpace=wrap;rounded=0;" vertex="1" parent="1">
          <mxGeometry x="810.25" y="510" width="177.5" height="30" as="geometry" />
        </mxCell>
      </root>
    </mxGraphModel>
  </diagram>
  <diagram id="6AXkb7crcYk4uX5KISa7" name="Core+SW+Sec_withIDs">
    <mxGraphModel dx="2271" dy="876" grid="1" gridSize="10" guides="1" tooltips="1" connect="1" arrows="1" fold="1" page="1" pageScale="1" pageWidth="850" pageHeight="1100" math="0" shadow="0">
      <root>
        <mxCell id="0" />
        <mxCell id="1" parent="0" />
        <mxCell id="f8qcQYwDYafTC3CX8d2i-1" value="&lt;div&gt;Acme&lt;/div&gt;&lt;div&gt;Application&lt;/div&gt;&lt;div&gt;v1.3&lt;br&gt;&lt;/div&gt;" style="ellipse;whiteSpace=wrap;html=1;aspect=fixed;fillColor=#d5e8d4;strokeColor=#82b366;" parent="1" vertex="1">
          <mxGeometry x="70" y="310" width="140" height="140" as="geometry" />
        </mxCell>
        <mxCell id="f8qcQYwDYafTC3CX8d2i-2" value="" style="endArrow=classic;html=1;rounded=0;entryX=-0.056;entryY=0.433;entryDx=0;entryDy=0;entryPerimeter=0;fillColor=#d5e8d4;strokeColor=#82b366;" parent="1" target="f8qcQYwDYafTC3CX8d2i-6" edge="1">
          <mxGeometry relative="1" as="geometry">
            <mxPoint x="209" y="350" as="sourcePoint" />
            <mxPoint x="320" y="320" as="targetPoint" />
          </mxGeometry>
        </mxCell>
        <mxCell id="f8qcQYwDYafTC3CX8d2i-3" value="contains" style="edgeLabel;resizable=0;html=1;align=center;verticalAlign=middle;" parent="f8qcQYwDYafTC3CX8d2i-2" connectable="0" vertex="1">
          <mxGeometry relative="1" as="geometry" />
        </mxCell>
        <mxCell id="f8qcQYwDYafTC3CX8d2i-4" value="" style="endArrow=classic;html=1;rounded=0;fillColor=#d5e8d4;strokeColor=#82b366;" parent="1" edge="1">
          <mxGeometry relative="1" as="geometry">
            <mxPoint x="200" y="420" as="sourcePoint" />
            <mxPoint x="330" y="440" as="targetPoint" />
          </mxGeometry>
        </mxCell>
        <mxCell id="f8qcQYwDYafTC3CX8d2i-5" value="contains" style="edgeLabel;resizable=0;html=1;align=center;verticalAlign=middle;" parent="f8qcQYwDYafTC3CX8d2i-4" connectable="0" vertex="1">
          <mxGeometry relative="1" as="geometry" />
        </mxCell>
        <mxCell id="f8qcQYwDYafTC3CX8d2i-6" value="&lt;div&gt;npm-elliptic&lt;/div&gt;&lt;div&gt;v6.5.2&lt;br&gt;&lt;/div&gt;" style="ellipse;whiteSpace=wrap;html=1;aspect=fixed;fillColor=#d5e8d4;strokeColor=#82b366;" parent="1" vertex="1">
          <mxGeometry x="390" y="290" width="90" height="90" as="geometry" />
        </mxCell>
        <mxCell id="f8qcQYwDYafTC3CX8d2i-7" value="alpine:latest (container)" style="ellipse;whiteSpace=wrap;html=1;aspect=fixed;fillColor=#d5e8d4;strokeColor=#82b366;" parent="1" vertex="1">
          <mxGeometry x="330" y="400" width="90" height="90" as="geometry" />
        </mxCell>
        <mxCell id="f8qcQYwDYafTC3CX8d2i-8" value="&lt;div&gt;cve&lt;/div&gt;&lt;div&gt;2020-28498&lt;/div&gt;" style="rhombus;whiteSpace=wrap;html=1;fillColor=#f8cecc;strokeColor=#b85450;" parent="1" vertex="1">
          <mxGeometry x="340" y="70" width="90" height="90" as="geometry" />
        </mxCell>
        <mxCell id="f8qcQYwDYafTC3CX8d2i-9" value="" style="endArrow=classic;html=1;rounded=0;exitX=0.5;exitY=0;exitDx=0;exitDy=0;fillColor=#f8cecc;strokeColor=#b85450;" parent="1" source="f8qcQYwDYafTC3CX8d2i-6" target="f8qcQYwDYafTC3CX8d2i-8" edge="1">
          <mxGeometry relative="1" as="geometry">
            <mxPoint x="420" y="280" as="sourcePoint" />
            <mxPoint x="520.5" y="270" as="targetPoint" />
          </mxGeometry>
        </mxCell>
        <mxCell id="f8qcQYwDYafTC3CX8d2i-10" value="hasAssociatedVulnerability" style="edgeLabel;resizable=0;html=1;align=center;verticalAlign=middle;" parent="f8qcQYwDYafTC3CX8d2i-9" connectable="0" vertex="1">
          <mxGeometry relative="1" as="geometry" />
        </mxCell>
        <mxCell id="f8qcQYwDYafTC3CX8d2i-11" value="&lt;div&gt;openssl&lt;/div&gt;&lt;div&gt;v3.0.4&lt;br&gt;&lt;/div&gt;" style="ellipse;whiteSpace=wrap;html=1;aspect=fixed;fillColor=#d5e8d4;strokeColor=#82b366;" parent="1" vertex="1">
          <mxGeometry x="400" y="540" width="90" height="90" as="geometry" />
        </mxCell>
        <mxCell id="f8qcQYwDYafTC3CX8d2i-12" value="" style="endArrow=classic;html=1;rounded=0;exitX=0.689;exitY=1.011;exitDx=0;exitDy=0;exitPerimeter=0;fillColor=#d5e8d4;strokeColor=#82b366;" parent="1" source="f8qcQYwDYafTC3CX8d2i-7" target="f8qcQYwDYafTC3CX8d2i-11" edge="1">
          <mxGeometry relative="1" as="geometry">
            <mxPoint x="210" y="430" as="sourcePoint" />
            <mxPoint x="340" y="450" as="targetPoint" />
          </mxGeometry>
        </mxCell>
        <mxCell id="f8qcQYwDYafTC3CX8d2i-13" value="contains" style="edgeLabel;resizable=0;html=1;align=center;verticalAlign=middle;" parent="f8qcQYwDYafTC3CX8d2i-12" connectable="0" vertex="1">
          <mxGeometry relative="1" as="geometry" />
        </mxCell>
        <mxCell id="f8qcQYwDYafTC3CX8d2i-14" value="&lt;div&gt;cve&lt;/div&gt;&lt;div&gt;2022-2274&lt;/div&gt;" style="rhombus;whiteSpace=wrap;html=1;fillColor=#f8cecc;strokeColor=#b85450;" parent="1" vertex="1">
          <mxGeometry x="280" y="660" width="90" height="90" as="geometry" />
        </mxCell>
        <mxCell id="f8qcQYwDYafTC3CX8d2i-15" value="" style="endArrow=classic;html=1;rounded=0;fillColor=#f8cecc;strokeColor=#b85450;" parent="1" source="f8qcQYwDYafTC3CX8d2i-11" target="f8qcQYwDYafTC3CX8d2i-14" edge="1">
          <mxGeometry relative="1" as="geometry">
            <mxPoint x="419.5" y="310" as="sourcePoint" />
            <mxPoint x="670" y="480" as="targetPoint" />
          </mxGeometry>
        </mxCell>
        <mxCell id="f8qcQYwDYafTC3CX8d2i-16" value="hasAssociatedVulnerability" style="edgeLabel;resizable=0;html=1;align=center;verticalAlign=middle;" parent="f8qcQYwDYafTC3CX8d2i-15" connectable="0" vertex="1">
          <mxGeometry relative="1" as="geometry" />
        </mxCell>
        <mxCell id="f8qcQYwDYafTC3CX8d2i-20" value="" style="endArrow=classic;html=1;rounded=0;entryX=0.643;entryY=1;entryDx=0;entryDy=0;entryPerimeter=0;fillColor=#f8cecc;strokeColor=#b85450;" parent="1" source="f8qcQYwDYafTC3CX8d2i-14" target="f8qcQYwDYafTC3CX8d2i-1" edge="1">
          <mxGeometry relative="1" as="geometry">
            <mxPoint x="400.0044326601774" y="590.0044326601773" as="sourcePoint" />
            <mxPoint x="204.02999999999994" y="762.01" as="targetPoint" />
          </mxGeometry>
        </mxCell>
        <mxCell id="f8qcQYwDYafTC3CX8d2i-21" value="&lt;div&gt;CvssV3VulnAssessmentRelationship:&lt;/div&gt;&lt;div&gt;hasAssessmentFor&lt;/div&gt;" style="edgeLabel;resizable=0;html=1;align=center;verticalAlign=middle;" parent="f8qcQYwDYafTC3CX8d2i-20" connectable="0" vertex="1">
          <mxGeometry relative="1" as="geometry" />
        </mxCell>
        <mxCell id="f8qcQYwDYafTC3CX8d2i-22" value="" style="endArrow=classic;html=1;rounded=0;entryX=0.679;entryY=-0.014;entryDx=0;entryDy=0;entryPerimeter=0;fillColor=#f8cecc;strokeColor=#b85450;" parent="1" source="f8qcQYwDYafTC3CX8d2i-8" edge="1">
          <mxGeometry relative="1" as="geometry">
            <mxPoint x="371" y="146" as="sourcePoint" />
            <mxPoint x="175" y="318" as="targetPoint" />
          </mxGeometry>
        </mxCell>
        <mxCell id="f8qcQYwDYafTC3CX8d2i-23" value="&lt;div&gt;CvssV2VulnAssessmentRelationship:&lt;/div&gt;&lt;div&gt;hasAssessmentFor&lt;/div&gt;" style="edgeLabel;resizable=0;html=1;align=center;verticalAlign=middle;" parent="f8qcQYwDYafTC3CX8d2i-22" connectable="0" vertex="1">
          <mxGeometry relative="1" as="geometry">
            <mxPoint x="-29" as="offset" />
          </mxGeometry>
        </mxCell>
        <mxCell id="f8qcQYwDYafTC3CX8d2i-24" value="&lt;div&gt;Agent: Security Researcher&lt;/div&gt;&lt;div&gt;John Smith (Snyk)&lt;/div&gt;" style="shape=umlActor;verticalLabelPosition=bottom;verticalAlign=top;html=1;outlineConnect=0;fillColor=#dae8fc;strokeColor=#6c8ebf;" parent="1" vertex="1">
          <mxGeometry x="610" y="85" width="30" height="60" as="geometry" />
        </mxCell>
        <mxCell id="f8qcQYwDYafTC3CX8d2i-25" value="" style="endArrow=classic;html=1;rounded=0;fillColor=#f8cecc;strokeColor=#b85450;" parent="1" edge="1">
          <mxGeometry relative="1" as="geometry">
            <mxPoint x="430" y="114.5" as="sourcePoint" />
            <mxPoint x="600" y="115" as="targetPoint" />
          </mxGeometry>
        </mxCell>
        <mxCell id="f8qcQYwDYafTC3CX8d2i-26" value="reportedBy" style="edgeLabel;resizable=0;html=1;align=center;verticalAlign=middle;" parent="f8qcQYwDYafTC3CX8d2i-25" connectable="0" vertex="1">
          <mxGeometry relative="1" as="geometry" />
        </mxCell>
        <mxCell id="f8qcQYwDYafTC3CX8d2i-27" value="" style="curved=1;endArrow=classic;html=1;rounded=0;entryX=-0.067;entryY=0.489;entryDx=0;entryDy=0;entryPerimeter=0;exitX=0;exitY=0.5;exitDx=0;exitDy=0;fillColor=#f8cecc;strokeColor=#b85450;" parent="1" source="f8qcQYwDYafTC3CX8d2i-8" edge="1">
          <mxGeometry width="50" height="50" relative="1" as="geometry">
            <mxPoint x="-260" y="240" as="sourcePoint" />
            <mxPoint x="90" y="330.90999999999997" as="targetPoint" />
            <Array as="points">
              <mxPoint x="210" y="80" />
              <mxPoint x="50" y="200" />
            </Array>
          </mxGeometry>
        </mxCell>
        <mxCell id="f8qcQYwDYafTC3CX8d2i-28" value="&lt;div&gt;VexAffectedAssessmentRelationship:&lt;/div&gt;affects" style="edgeLabel;resizable=0;html=1;align=center;verticalAlign=middle;" parent="1" connectable="0" vertex="1">
          <mxGeometry x="130.00015518141217" y="160.00151665796832" as="geometry" />
        </mxCell>
        <mxCell id="f8qcQYwDYafTC3CX8d2i-29" value="" style="curved=1;endArrow=classic;html=1;rounded=0;fillColor=#f8cecc;strokeColor=#b85450;" parent="1" source="f8qcQYwDYafTC3CX8d2i-14" target="f8qcQYwDYafTC3CX8d2i-1" edge="1">
          <mxGeometry width="50" height="50" relative="1" as="geometry">
            <mxPoint x="140" y="630" as="sourcePoint" />
            <mxPoint x="190" y="580" as="targetPoint" />
            <Array as="points">
              <mxPoint x="60" y="650" />
              <mxPoint x="20" y="540" />
            </Array>
          </mxGeometry>
        </mxCell>
        <mxCell id="f8qcQYwDYafTC3CX8d2i-30" value="&lt;div&gt;VexNotAffectedAssessmentRelationship:&lt;/div&gt;doesNotAffect" style="edgeLabel;resizable=0;html=1;align=center;verticalAlign=middle;" parent="1" connectable="0" vertex="1">
          <mxGeometry x="59.99686863858648" y="620.0016444589619" as="geometry">
            <mxPoint x="-1" y="-3" as="offset" />
          </mxGeometry>
        </mxCell>
        <mxCell id="f8qcQYwDYafTC3CX8d2i-32" value="" style="endArrow=classic;html=1;rounded=0;fillColor=#f8cecc;strokeColor=#b85450;" parent="1" source="f8qcQYwDYafTC3CX8d2i-8" edge="1">
          <mxGeometry relative="1" as="geometry">
            <mxPoint x="620" y="170" as="sourcePoint" />
            <mxPoint x="610" y="240" as="targetPoint" />
          </mxGeometry>
        </mxCell>
        <mxCell id="f8qcQYwDYafTC3CX8d2i-33" value="externalReference" style="edgeLabel;resizable=0;html=1;align=center;verticalAlign=middle;" parent="f8qcQYwDYafTC3CX8d2i-32" connectable="0" vertex="1">
          <mxGeometry relative="1" as="geometry" />
        </mxCell>
        <mxCell id="f8qcQYwDYafTC3CX8d2i-34" value="&lt;div&gt;Agent (Person):&lt;/div&gt;&lt;div&gt;&amp;nbsp;Application Owner Jane Doe&lt;/div&gt;" style="shape=umlActor;verticalLabelPosition=bottom;verticalAlign=top;html=1;outlineConnect=0;fillColor=#dae8fc;strokeColor=#6c8ebf;" parent="1" vertex="1">
          <mxGeometry x="-140" y="434" width="30" height="60" as="geometry" />
        </mxCell>
        <mxCell id="f8qcQYwDYafTC3CX8d2i-37" value="&lt;pre&gt;&lt;font face=&quot;Helvetica&quot;&gt;https://snyk.io/vuln/SNYK-JS-ELLIPTIC-1064899&lt;/font&gt;&lt;/pre&gt;" style="text;html=1;strokeColor=none;fillColor=none;align=center;verticalAlign=middle;whiteSpace=wrap;rounded=0;" parent="1" vertex="1">
          <mxGeometry x="630" y="240" width="60" height="30" as="geometry" />
        </mxCell>
        <mxCell id="GFsy21nCWk4kTKSi6GY2-1" value="" style="sketch=0;outlineConnect=0;fillColor=#dae8fc;strokeColor=#6c8ebf;dashed=0;verticalLabelPosition=bottom;verticalAlign=top;align=center;html=1;fontSize=12;fontStyle=0;aspect=fixed;pointerEvents=1;shape=mxgraph.aws4.office_building;strokeWidth=1;" parent="1" vertex="1">
          <mxGeometry x="-150" y="270" width="50" height="78" as="geometry" />
        </mxCell>
        <mxCell id="GFsy21nCWk4kTKSi6GY2-3" value="Agent (Organization): Acme Company" style="text;html=1;strokeColor=none;fillColor=none;align=center;verticalAlign=middle;whiteSpace=wrap;rounded=0;" parent="1" vertex="1">
          <mxGeometry x="-197.5" y="350" width="145" height="30" as="geometry" />
        </mxCell>
        <mxCell id="4ZECy0K2lzv7rSOLT6Ln-1" value="" style="endArrow=classic;html=1;rounded=0;fillColor=#dae8fc;strokeColor=#6c8ebf;" parent="1" source="f8qcQYwDYafTC3CX8d2i-1" target="f8qcQYwDYafTC3CX8d2i-34" edge="1">
          <mxGeometry relative="1" as="geometry">
            <mxPoint x="80" y="370" as="sourcePoint" />
            <mxPoint x="180" y="370" as="targetPoint" />
          </mxGeometry>
        </mxCell>
        <mxCell id="4ZECy0K2lzv7rSOLT6Ln-2" value="suppliedBy" style="edgeLabel;resizable=0;html=1;align=center;verticalAlign=middle;" parent="4ZECy0K2lzv7rSOLT6Ln-1" connectable="0" vertex="1">
          <mxGeometry relative="1" as="geometry" />
        </mxCell>
        <mxCell id="O4p5zmkieGeU-FR5Njzc-1" value="" style="endArrow=classic;html=1;rounded=0;exitX=0.071;exitY=0.236;exitDx=0;exitDy=0;exitPerimeter=0;fillColor=#dae8fc;strokeColor=#6c8ebf;" parent="1" edge="1">
          <mxGeometry relative="1" as="geometry">
            <mxPoint x="80" y="343" as="sourcePoint" />
            <mxPoint x="-90" y="310" as="targetPoint" />
          </mxGeometry>
        </mxCell>
        <mxCell id="O4p5zmkieGeU-FR5Njzc-2" value="suppliedBy" style="edgeLabel;resizable=0;html=1;align=center;verticalAlign=middle;" parent="O4p5zmkieGeU-FR5Njzc-1" connectable="0" vertex="1">
          <mxGeometry relative="1" as="geometry" />
        </mxCell>
        <mxCell id="N0m1LnkJ6Uj_Iqv5hHXr-1" value="Software profile" style="rounded=0;whiteSpace=wrap;html=1;fillColor=#d5e8d4;strokeColor=#82b366;" parent="1" vertex="1">
          <mxGeometry x="-320" y="130" width="110" height="30" as="geometry" />
        </mxCell>
        <mxCell id="N0m1LnkJ6Uj_Iqv5hHXr-2" value="Core profile" style="rounded=0;whiteSpace=wrap;html=1;fillColor=#dae8fc;strokeColor=#6c8ebf;" parent="1" vertex="1">
          <mxGeometry x="-320" y="85" width="110" height="30" as="geometry" />
        </mxCell>
        <mxCell id="N0m1LnkJ6Uj_Iqv5hHXr-3" value="Security profile" style="rounded=0;whiteSpace=wrap;html=1;fillColor=#f8cecc;strokeColor=#b85450;" parent="1" vertex="1">
          <mxGeometry x="-320" y="175" width="110" height="30" as="geometry" />
        </mxCell>
        <mxCell id="hwkcLvzi7NTUw7Loaxai-1" value="&lt;font style=&quot;font-size: 10px;&quot; face=&quot;Courier New&quot;&gt;@id: urn:acme.com&lt;/font&gt;&lt;font style=&quot;font-size: 10px;&quot; face=&quot;Courier New&quot;&gt;-4fe40e24-20e3-11ee-be56-0242ac120002&lt;/font&gt;" style="text;html=1;strokeColor=none;fillColor=none;align=center;verticalAlign=middle;whiteSpace=wrap;rounded=0;" parent="1" vertex="1">
          <mxGeometry x="-195" y="375" width="145" height="50" as="geometry" />
        </mxCell>
        <mxCell id="ZoEslS4ycCrp6TBKCtXL-1" value="&lt;font style=&quot;font-size: 10px;&quot; face=&quot;Courier New&quot;&gt;@id: urn:jane-doe-1@acme.com-&lt;/font&gt;&lt;font style=&quot;font-size: 10px;&quot; face=&quot;Courier New&quot;&gt;76010e36-20e3-11ee-be56-0242ac120002&lt;/font&gt;" style="text;html=1;strokeColor=none;fillColor=none;align=center;verticalAlign=middle;whiteSpace=wrap;rounded=0;" parent="1" vertex="1">
          <mxGeometry x="-195" y="546" width="140" height="30" as="geometry" />
        </mxCell>
        <mxCell id="sh47b9Y_73q71fJ8lMcW-1" value="&lt;font style=&quot;font-size: 10px;&quot; face=&quot;Courier New&quot;&gt;@id: urn:product-acme-application-1.3&lt;/font&gt;&lt;font style=&quot;font-size: 10px;&quot; face=&quot;Courier New&quot;&gt;-&lt;/font&gt;&lt;font style=&quot;font-size: 10px;&quot; face=&quot;Courier New&quot;&gt;8f833b36-20e3-11ee-be56-0242ac120002&lt;/font&gt;" style="text;html=1;strokeColor=none;fillColor=none;align=center;verticalAlign=middle;whiteSpace=wrap;rounded=0;" parent="1" vertex="1">
          <mxGeometry x="50" y="464" width="180" height="30" as="geometry" />
        </mxCell>
        <mxCell id="zAcUXMBSQklFkVmbAcg4-1" value="&lt;font face=&quot;Courier New&quot;&gt;&lt;font style=&quot;font-size: 10px;&quot;&gt;@id: urn:npm-elliptic-6.5.2&lt;/font&gt;&lt;font style=&quot;font-size: 10px;&quot;&gt;-a840cbd4-20e3-11ee-be56-0242ac120002&lt;/font&gt;&lt;/font&gt;" style="text;html=1;strokeColor=none;fillColor=none;align=center;verticalAlign=middle;whiteSpace=wrap;rounded=0;" parent="1" vertex="1">
          <mxGeometry x="470" y="358" width="200" height="30" as="geometry" />
        </mxCell>
        <mxCell id="9-VslCg36cMJEPx825y0-1" value="&lt;div align=&quot;left&quot;&gt;&lt;font face=&quot;Courier New&quot;&gt;&lt;font style=&quot;font-size: 10px;&quot;&gt;@id: urn:container-alpine-latest&lt;/font&gt;&lt;font style=&quot;font-size: 10px;&quot;&gt;-sha256:69665d02cb32192e52e07644d76bc6f25abeb5410edc1c7a81a10ba3f0efb90a-bc60a210-20e3-11ee-be56-0242ac120002&lt;/font&gt;&lt;/font&gt;&lt;/div&gt;" style="text;html=1;strokeColor=none;fillColor=none;align=left;verticalAlign=middle;whiteSpace=wrap;rounded=0;" parent="1" vertex="1">
          <mxGeometry x="425" y="452" width="222.5" height="30" as="geometry" />
        </mxCell>
        <mxCell id="1ciZfqHeNcxZjasxvG1y-1" value="&lt;font face=&quot;Courier New&quot;&gt;&lt;font style=&quot;font-size: 10px;&quot;&gt;@id: urn:openssl-3.0.4-&lt;/font&gt;&lt;font style=&quot;font-size: 10px;&quot;&gt;cf812fb8-20e3-11ee-be56-0242ac120002&lt;/font&gt;&lt;/font&gt;" style="text;html=1;strokeColor=none;fillColor=none;align=center;verticalAlign=middle;whiteSpace=wrap;rounded=0;" parent="1" vertex="1">
          <mxGeometry x="470" y="576" width="200" height="30" as="geometry" />
        </mxCell>
        <mxCell id="SpI04T96J4EgmGUL9lHJ-2" value="&lt;font style=&quot;font-size: 10px;&quot; face=&quot;Courier New&quot;&gt;@id: urn:spdx.dev:vuln-cve-2020-28498&lt;br&gt;&lt;/font&gt;" style="text;html=1;strokeColor=none;fillColor=none;align=center;verticalAlign=middle;whiteSpace=wrap;rounded=0;" parent="1" vertex="1">
          <mxGeometry x="300" y="40" width="180" height="30" as="geometry" />
        </mxCell>
        <mxCell id="SpI04T96J4EgmGUL9lHJ-3" value="&lt;font style=&quot;font-size: 10px;&quot; face=&quot;Courier New&quot;&gt;@id: urn:spdx.dev:vuln-cve-2022-2274&lt;br&gt;&lt;/font&gt;" style="text;html=1;strokeColor=none;fillColor=none;align=center;verticalAlign=middle;whiteSpace=wrap;rounded=0;" parent="1" vertex="1">
          <mxGeometry x="240" y="752" width="180" height="30" as="geometry" />
        </mxCell>
        <mxCell id="SpI04T96J4EgmGUL9lHJ-4" value="&lt;font style=&quot;font-size: 10px;&quot; face=&quot;Courier New&quot;&gt;@id: urn:john-smith-1@snyk.com-&lt;/font&gt;&lt;font style=&quot;font-size: 10px;&quot; face=&quot;Courier New&quot;&gt;cbae9c34-20e5-11ee-be56-0242ac120002&lt;/font&gt;" style="text;html=1;strokeColor=none;fillColor=none;align=center;verticalAlign=middle;whiteSpace=wrap;rounded=0;" parent="1" vertex="1">
          <mxGeometry x="500" y="50" width="250" height="30" as="geometry" />
        </mxCell>
        <mxCell id="h2YtAO2d0vcrbb-AAPDv-1" value="&lt;font style=&quot;font-size: 10px;&quot; face=&quot;Courier New&quot;&gt;@id: urn:john-smith-1@snyk.com-&lt;/font&gt;&lt;font style=&quot;font-size: 10px;&quot; face=&quot;Courier New&quot;&gt;cbae9c34-20e5-11ee-be56-0242ac120002&lt;/font&gt;" style="text;html=1;strokeColor=none;fillColor=none;align=center;verticalAlign=middle;whiteSpace=wrap;rounded=0;" parent="1" vertex="1">
          <mxGeometry x="980" y="1680" width="250" height="30" as="geometry" />
        </mxCell>
        <mxCell id="h2YtAO2d0vcrbb-AAPDv-2" value="&lt;font style=&quot;font-size: 10px;&quot; face=&quot;Courier New&quot;&gt;@id: urn:john-smith-1@snyk.com-&lt;/font&gt;&lt;font style=&quot;font-size: 10px;&quot; face=&quot;Courier New&quot;&gt;cbae9c34-20e5-11ee-be56-0242ac120002&lt;/font&gt;" style="text;html=1;strokeColor=none;fillColor=none;align=center;verticalAlign=middle;whiteSpace=wrap;rounded=0;" parent="1" vertex="1">
          <mxGeometry x="1000" y="1730" width="250" height="30" as="geometry" />
        </mxCell>
        <mxCell id="h2YtAO2d0vcrbb-AAPDv-3" value="&lt;font style=&quot;font-size: 10px;&quot; face=&quot;Courier New&quot;&gt;@id: urn:openssl.org&lt;/font&gt;&lt;font style=&quot;font-size: 10px;&quot; face=&quot;Courier New&quot;&gt;-&lt;/font&gt;&lt;font style=&quot;font-size: 10px;&quot; face=&quot;Courier New&quot;&gt;0d106fcc-20e6-11ee-be56-0242ac120002&lt;/font&gt;" style="text;html=1;strokeColor=none;fillColor=none;align=center;verticalAlign=middle;whiteSpace=wrap;rounded=0;" parent="1" vertex="1">
          <mxGeometry x="420.25" y="856" width="240" height="40" as="geometry" />
        </mxCell>
        <mxCell id="UYyqLEenVodzLUsHIbgI-1" value="" style="endArrow=classic;html=1;rounded=0;fillColor=#dae8fc;strokeColor=#6c8ebf;" edge="1" parent="1">
          <mxGeometry relative="1" as="geometry">
            <mxPoint x="480" y="331" as="sourcePoint" />
            <mxPoint x="760" y="330" as="targetPoint" />
          </mxGeometry>
        </mxCell>
        <mxCell id="UYyqLEenVodzLUsHIbgI-2" value="suppliedBy" style="edgeLabel;resizable=0;html=1;align=center;verticalAlign=middle;" connectable="0" vertex="1" parent="UYyqLEenVodzLUsHIbgI-1">
          <mxGeometry relative="1" as="geometry" />
        </mxCell>
        <mxCell id="UYyqLEenVodzLUsHIbgI-5" value="" style="sketch=0;outlineConnect=0;fillColor=#dae8fc;strokeColor=#6c8ebf;dashed=0;verticalLabelPosition=bottom;verticalAlign=top;align=center;html=1;fontSize=12;fontStyle=0;aspect=fixed;pointerEvents=1;shape=mxgraph.aws4.office_building;strokeWidth=1;" vertex="1" parent="1">
          <mxGeometry x="770" y="280" width="50" height="78" as="geometry" />
        </mxCell>
        <mxCell id="UYyqLEenVodzLUsHIbgI-6" value="" style="sketch=0;outlineConnect=0;fillColor=#dae8fc;strokeColor=#6c8ebf;dashed=0;verticalLabelPosition=bottom;verticalAlign=top;align=center;html=1;fontSize=12;fontStyle=0;aspect=fixed;pointerEvents=1;shape=mxgraph.aws4.office_building;strokeWidth=1;" vertex="1" parent="1">
          <mxGeometry x="520" y="760" width="50" height="78" as="geometry" />
        </mxCell>
        <mxCell id="UYyqLEenVodzLUsHIbgI-7" value="OpenSSL Software Foundation" style="text;html=1;strokeColor=none;fillColor=none;align=center;verticalAlign=middle;whiteSpace=wrap;rounded=0;" vertex="1" parent="1">
          <mxGeometry x="456.25" y="838" width="177.5" height="30" as="geometry" />
        </mxCell>
        <mxCell id="UYyqLEenVodzLUsHIbgI-8" value="&lt;div&gt;Agent (Organization):&lt;/div&gt;&lt;div&gt;Indutny&lt;/div&gt;" style="text;html=1;strokeColor=none;fillColor=none;align=center;verticalAlign=middle;whiteSpace=wrap;rounded=0;" vertex="1" parent="1">
          <mxGeometry x="706.25" y="358" width="177.5" height="30" as="geometry" />
        </mxCell>
        <mxCell id="UYyqLEenVodzLUsHIbgI-9" value="" style="endArrow=classic;html=1;rounded=0;fillColor=#dae8fc;strokeColor=#6c8ebf;" edge="1" parent="1">
          <mxGeometry relative="1" as="geometry">
            <mxPoint x="424" y="437.75" as="sourcePoint" />
            <mxPoint x="874" y="452.25" as="targetPoint" />
          </mxGeometry>
        </mxCell>
        <mxCell id="UYyqLEenVodzLUsHIbgI-10" value="suppliedBy" style="edgeLabel;resizable=0;html=1;align=center;verticalAlign=middle;" connectable="0" vertex="1" parent="UYyqLEenVodzLUsHIbgI-9">
          <mxGeometry relative="1" as="geometry" />
        </mxCell>
        <mxCell id="UYyqLEenVodzLUsHIbgI-12" value="" style="sketch=0;outlineConnect=0;fillColor=#dae8fc;strokeColor=#6c8ebf;dashed=0;verticalLabelPosition=bottom;verticalAlign=top;align=center;html=1;fontSize=12;fontStyle=0;aspect=fixed;pointerEvents=1;shape=mxgraph.aws4.office_building;strokeWidth=1;" vertex="1" parent="1">
          <mxGeometry x="874" y="432" width="50" height="78" as="geometry" />
        </mxCell>
        <mxCell id="UYyqLEenVodzLUsHIbgI-13" value="TBD" style="text;html=1;strokeColor=none;fillColor=none;align=center;verticalAlign=middle;whiteSpace=wrap;rounded=0;" vertex="1" parent="1">
          <mxGeometry x="2210" y="1150" width="177.5" height="30" as="geometry" />
        </mxCell>
        <mxCell id="UYyqLEenVodzLUsHIbgI-14" value="&lt;div&gt;Agent (Organization):&lt;/div&gt;&lt;div&gt;Alpine Linux&lt;br&gt;&lt;/div&gt;" style="text;html=1;strokeColor=none;fillColor=none;align=center;verticalAlign=middle;whiteSpace=wrap;rounded=0;" vertex="1" parent="1">
          <mxGeometry x="810.25" y="510" width="177.5" height="30" as="geometry" />
        </mxCell>
        <mxCell id="gtUDbzWKHn3CnfhWh-F3-1" value="&lt;font style=&quot;font-size: 11px;&quot; face=&quot;Courier New&quot;&gt;&lt;font style=&quot;font-size: 11px;&quot;&gt;@id: urn:github.com-indutny&lt;/font&gt;&lt;font style=&quot;font-size: 11px;&quot; color=&quot;#000000&quot;&gt;-c55ffb14-2664-11ee-be56-0242ac120002&lt;/font&gt;&lt;/font&gt;" style="text;html=1;strokeColor=none;fillColor=none;align=center;verticalAlign=middle;whiteSpace=wrap;rounded=0;" vertex="1" parent="1">
          <mxGeometry x="700" y="393" width="200" height="30" as="geometry" />
        </mxCell>
        <mxCell id="gtUDbzWKHn3CnfhWh-F3-2" value="&lt;font style=&quot;font-size: 12px;&quot; face=&quot;Courier New&quot;&gt;&lt;font style=&quot;font-size: 12px;&quot;&gt;@id: urn:github.com-alpinelinux&lt;/font&gt;&lt;font style=&quot;font-size: 12px;&quot; color=&quot;#000000&quot;&gt;-&lt;/font&gt;&lt;/font&gt;&lt;font style=&quot;font-size: 12px;&quot; face=&quot;Courier New&quot;&gt;1c3fc2de-2665-11ee-be56-0242ac120002&lt;/font&gt;" style="text;html=1;strokeColor=none;fillColor=none;align=center;verticalAlign=middle;whiteSpace=wrap;rounded=0;" vertex="1" parent="1">
          <mxGeometry x="791" y="547" width="200" height="30" as="geometry" />
        </mxCell>
        <mxCell id="rDJhG6bYgoH26M7U4gWj-4" value="" style="endArrow=classic;html=1;rounded=0;fillColor=#f8cecc;strokeColor=#b85450;exitX=1;exitY=0.5;exitDx=0;exitDy=0;" edge="1" parent="1" source="f8qcQYwDYafTC3CX8d2i-14">
          <mxGeometry relative="1" as="geometry">
            <mxPoint x="280" y="704.5" as="sourcePoint" />
            <mxPoint x="510" y="790" as="targetPoint" />
          </mxGeometry>
        </mxCell>
        <mxCell id="rDJhG6bYgoH26M7U4gWj-5" value="reportedBy" style="edgeLabel;resizable=0;html=1;align=center;verticalAlign=middle;" connectable="0" vertex="1" parent="rDJhG6bYgoH26M7U4gWj-4">
          <mxGeometry relative="1" as="geometry" />
        </mxCell>
        <mxCell id="rDJhG6bYgoH26M7U4gWj-7" value="" style="endArrow=classic;html=1;rounded=0;fillColor=#dae8fc;strokeColor=#6c8ebf;" edge="1" parent="1" source="f8qcQYwDYafTC3CX8d2i-11" target="UYyqLEenVodzLUsHIbgI-6">
          <mxGeometry relative="1" as="geometry">
            <mxPoint x="490" y="341" as="sourcePoint" />
            <mxPoint x="530" y="750" as="targetPoint" />
          </mxGeometry>
        </mxCell>
        <mxCell id="rDJhG6bYgoH26M7U4gWj-8" value="suppliedBy" style="edgeLabel;resizable=0;html=1;align=center;verticalAlign=middle;" connectable="0" vertex="1" parent="rDJhG6bYgoH26M7U4gWj-7">
          <mxGeometry relative="1" as="geometry" />
        </mxCell>
      </root>
    </mxGraphModel>
  </diagram>
  <diagram id="7MvdStws8yuB97BxFgHp" name="Punchlist">
    <mxGraphModel dx="1421" dy="1976" grid="1" gridSize="10" guides="1" tooltips="1" connect="1" arrows="1" fold="1" page="1" pageScale="1" pageWidth="850" pageHeight="1100" math="0" shadow="0">
      <root>
        <mxCell id="0" />
        <mxCell id="1" parent="0" />
        <mxCell id="qT02zk6HtDRpvvQcPGwp-2" value="" style="rounded=0;whiteSpace=wrap;html=1;" vertex="1" parent="1">
          <mxGeometry x="90" y="90" width="680" height="540" as="geometry" />
        </mxCell>
        <mxCell id="qT02zk6HtDRpvvQcPGwp-3" value="&lt;div&gt;TODO:&lt;/div&gt;&lt;div&gt;&lt;span style=&quot;white-space: pre;&quot;&gt;&#x9;&lt;/span&gt;- Add SCA tool agent&lt;/div&gt;&lt;div&gt;&lt;span style=&quot;white-space: pre;&quot;&gt;&#x9;&lt;/span&gt;- Add CVE Scanner tool agent&lt;br&gt;&lt;/div&gt;" style="text;html=1;strokeColor=none;fillColor=none;align=left;verticalAlign=middle;whiteSpace=wrap;rounded=0;" vertex="1" parent="1">
          <mxGeometry x="100" y="-120" width="660" height="510" as="geometry" />
        </mxCell>
      </root>
    </mxGraphModel>
  </diagram>
</mxfile>

